<mxfile host="app.diagrams.net" modified="2021-06-25T15:20:36.647Z" agent="5.0 (Windows NT 6.1; Win64; x64) AppleWebKit/537.36 (KHTML, like Gecko) Chrome/91.0.4472.124 Safari/537.36" etag="CMMkoLuGlP1s2U8rhSLB" version="14.8.1" type="github">
  <diagram name="Page-1" id="c7488fd3-1785-93aa-aadb-54a6760d102a">
    <mxGraphModel dx="1422" dy="757" grid="1" gridSize="10" guides="1" tooltips="1" connect="1" arrows="1" fold="1" page="1" pageScale="1" pageWidth="1100" pageHeight="850" background="none" math="0" shadow="0">
      <root>
        <mxCell id="0" />
        <mxCell id="1" parent="0" />
        <mxCell id="YRKfkyJLcr5qfOGj8GzO-10" value="引擎层" style="rounded=0;whiteSpace=wrap;html=1;align=right;" vertex="1" parent="1">
          <mxGeometry x="210.5" y="510" width="369.5" height="110" as="geometry" />
        </mxCell>
        <mxCell id="YRKfkyJLcr5qfOGj8GzO-8" value="服务层" style="rounded=0;whiteSpace=wrap;html=1;align=right;" vertex="1" parent="1">
          <mxGeometry x="210.5" y="130" width="375" height="350" as="geometry" />
        </mxCell>
        <mxCell id="YRKfkyJLcr5qfOGj8GzO-1" value="连接管理器" style="rounded=0;whiteSpace=wrap;html=1;" vertex="1" parent="1">
          <mxGeometry x="280" y="160" width="240" height="40" as="geometry" />
        </mxCell>
        <mxCell id="YRKfkyJLcr5qfOGj8GzO-2" value="查询缓存" style="rounded=0;whiteSpace=wrap;html=1;" vertex="1" parent="1">
          <mxGeometry x="280" y="240" width="240" height="40" as="geometry" />
        </mxCell>
        <mxCell id="YRKfkyJLcr5qfOGj8GzO-3" value="语法解析" style="rounded=0;whiteSpace=wrap;html=1;" vertex="1" parent="1">
          <mxGeometry x="280" y="320" width="240" height="40" as="geometry" />
        </mxCell>
        <mxCell id="YRKfkyJLcr5qfOGj8GzO-4" value="查询优化" style="rounded=0;whiteSpace=wrap;html=1;" vertex="1" parent="1">
          <mxGeometry x="278" y="400" width="240" height="40" as="geometry" />
        </mxCell>
        <mxCell id="YRKfkyJLcr5qfOGj8GzO-5" value="innodb" style="shape=cylinder3;whiteSpace=wrap;html=1;boundedLbl=1;backgroundOutline=1;size=15;" vertex="1" parent="1">
          <mxGeometry x="315" y="520" width="60" height="80" as="geometry" />
        </mxCell>
        <mxCell id="YRKfkyJLcr5qfOGj8GzO-6" value="myisam" style="shape=cylinder3;whiteSpace=wrap;html=1;boundedLbl=1;backgroundOutline=1;size=15;" vertex="1" parent="1">
          <mxGeometry x="425" y="520" width="60" height="80" as="geometry" />
        </mxCell>
        <mxCell id="YRKfkyJLcr5qfOGj8GzO-7" value="客户端" style="shape=hexagon;perimeter=hexagonPerimeter2;whiteSpace=wrap;html=1;fixedSize=1;" vertex="1" parent="1">
          <mxGeometry x="240.5" width="315" height="40" as="geometry" />
        </mxCell>
        <mxCell id="YRKfkyJLcr5qfOGj8GzO-9" value="文件系统" style="shape=cube;whiteSpace=wrap;html=1;boundedLbl=1;backgroundOutline=1;darkOpacity=0.05;darkOpacity2=0.1;" vertex="1" parent="1">
          <mxGeometry x="338" y="670" width="120" height="80" as="geometry" />
        </mxCell>
        <mxCell id="YRKfkyJLcr5qfOGj8GzO-12" value="" style="shape=singleArrow;direction=south;whiteSpace=wrap;html=1;" vertex="1" parent="1">
          <mxGeometry x="260" y="40" width="30" height="90" as="geometry" />
        </mxCell>
        <mxCell id="YRKfkyJLcr5qfOGj8GzO-13" value="" style="shape=singleArrow;direction=south;whiteSpace=wrap;html=1;" vertex="1" parent="1">
          <mxGeometry x="375" y="40" width="30" height="90" as="geometry" />
        </mxCell>
        <mxCell id="YRKfkyJLcr5qfOGj8GzO-14" value="" style="shape=singleArrow;direction=south;whiteSpace=wrap;html=1;" vertex="1" parent="1">
          <mxGeometry x="488" y="40" width="30" height="90" as="geometry" />
        </mxCell>
        <mxCell id="YRKfkyJLcr5qfOGj8GzO-15" value="" style="shape=singleArrow;direction=south;whiteSpace=wrap;html=1;" vertex="1" parent="1">
          <mxGeometry x="385.25" y="200" width="30" height="40" as="geometry" />
        </mxCell>
        <mxCell id="YRKfkyJLcr5qfOGj8GzO-16" value="" style="shape=singleArrow;direction=south;whiteSpace=wrap;html=1;" vertex="1" parent="1">
          <mxGeometry x="385.25" y="280" width="30" height="40" as="geometry" />
        </mxCell>
        <mxCell id="YRKfkyJLcr5qfOGj8GzO-17" value="" style="shape=singleArrow;direction=south;whiteSpace=wrap;html=1;" vertex="1" parent="1">
          <mxGeometry x="385" y="360" width="30" height="40" as="geometry" />
        </mxCell>
        <mxCell id="YRKfkyJLcr5qfOGj8GzO-20" value="" style="shape=singleArrow;direction=south;whiteSpace=wrap;html=1;" vertex="1" parent="1">
          <mxGeometry x="383" y="480" width="30" height="30" as="geometry" />
        </mxCell>
        <mxCell id="YRKfkyJLcr5qfOGj8GzO-21" value="" style="shape=singleArrow;direction=south;whiteSpace=wrap;html=1;" vertex="1" parent="1">
          <mxGeometry x="385.25" y="620" width="30" height="50" as="geometry" />
        </mxCell>
      </root>
    </mxGraphModel>
  </diagram>
</mxfile>
